<svg width="16" height="16" viewBox="0 0 16 16" fill="none" xmlns="http://www.w3.org/2000/svg">
<path fill-rule="evenodd" clip-rule="evenodd" d="M11.2246 6.11747C11.1902 6.08024 11.1493 6.05069 11.1043 6.03053C11.0593 6.01038 11.0111 6 10.9624 6C10.9137 6 10.8654 6.01038 10.8205 6.03053C10.7755 6.05069 10.7346 6.08024 10.7002 6.11747L7.99992 9.03403L5.29964 6.11747C5.23011 6.04239 5.1358 6.00021 5.03746 6.00021C4.93913 6.00021 4.84482 6.04239 4.77528 6.11747C4.70575 6.19256 4.66669 6.29439 4.66669 6.40057C4.66669 6.50675 4.70575 6.60859 4.77528 6.68367L7.73775 9.88253C7.77214 9.91976 7.81301 9.94931 7.858 9.96947C7.90299 9.98962 7.95122 10 7.99992 10C8.04863 10 8.09686 9.98962 8.14185 9.96947C8.18684 9.94931 8.2277 9.91976 8.2621 9.88253L11.2246 6.68367C11.259 6.64653 11.2864 6.6024 11.3051 6.55382C11.3237 6.50525 11.3334 6.45317 11.3334 6.40057C11.3334 6.34798 11.3237 6.2959 11.3051 6.24732C11.2864 6.19874 11.259 6.15462 11.2246 6.11747Z" fill="black"/>
</svg>
