<svg width="18" height="18" viewBox="0 0 18 18" fill="none" xmlns="http://www.w3.org/2000/svg">
<path d="M0.5386 0C0.395754 0 0.258759 0.0632141 0.157752 0.175736C0.0567451 0.288258 0 0.44087 0 0.6C0 0.75913 0.0567451 0.911742 0.157752 1.02426C0.258759 1.13679 0.395754 1.2 0.5386 1.2H17.4614C17.6042 1.2 17.7412 1.13679 17.8422 1.02426C17.9433 0.911742 18 0.75913 18 0.6C18 0.44087 17.9433 0.288258 17.8422 0.175736C17.7412 0.0632141 17.6042 0 17.4614 0H0.5386ZM0 9C0 8.84087 0.0567451 8.68826 0.157752 8.57574C0.258759 8.46321 0.395754 8.4 0.5386 8.4H17.4614C17.6042 8.4 17.7412 8.46321 17.8422 8.57574C17.9433 8.68826 18 8.84087 18 9C18 9.15913 17.9433 9.31174 17.8422 9.42426C17.7412 9.53679 17.6042 9.6 17.4614 9.6H0.5386C0.395754 9.6 0.258759 9.53679 0.157752 9.42426C0.0567451 9.31174 0 9.15913 0 9ZM0 17.4C0 17.2409 0.0567451 17.0883 0.157752 16.9757C0.258759 16.8632 0.395754 16.8 0.5386 16.8H17.4614C17.6042 16.8 17.7412 16.8632 17.8422 16.9757C17.9433 17.0883 18 17.2409 18 17.4C18 17.5591 17.9433 17.7117 17.8422 17.8243C17.7412 17.9368 17.6042 18 17.4614 18H0.5386C0.395754 18 0.258759 17.9368 0.157752 17.8243C0.0567451 17.7117 0 17.5591 0 17.4Z" fill="black"/>
</svg>
