<svg width="20" height="20" viewBox="0 0 20 20" fill="none" xmlns="http://www.w3.org/2000/svg">
<path fill-rule="evenodd" clip-rule="evenodd" d="M12.4799 12.37C11.8634 12.9819 11.1316 13.4673 10.3261 13.7984C9.52064 14.1296 8.65736 14.3 7.78553 14.3C6.91371 14.3 6.05043 14.1296 5.24497 13.7984C4.43951 13.4673 3.70765 12.9819 3.09118 12.37C2.47471 11.7581 1.9857 11.0316 1.65206 10.2321C1.31843 9.43264 1.14671 8.57575 1.14671 7.71038C1.14671 6.84502 1.31843 5.98813 1.65206 5.18864C1.9857 4.38914 2.47471 3.66271 3.09118 3.0508C4.3362 1.81501 6.02481 1.12074 7.78553 1.12074C9.54626 1.12074 11.2349 1.81501 12.4799 3.0508C13.7249 4.2866 14.4244 5.9627 14.4244 7.71038C14.4244 9.45807 13.7249 11.1342 12.4799 12.37ZM12.7783 13.6459C11.2343 14.9295 9.24914 15.5688 7.24008 15.4296C5.23101 15.2905 3.35455 14.3836 2.00514 12.8997C0.655728 11.4157 -0.0615294 9.47029 0.00414262 7.47232C0.0698147 5.47435 0.913301 3.57947 2.35729 2.18599C3.80128 0.792506 5.73331 0.00896661 7.74724 7.64816e-05C9.76117 -0.00881365 11.7001 0.757638 13.1566 2.13832C14.613 3.51899 15.4734 5.40636 15.557 7.40367C15.6406 9.40097 14.9408 11.3527 13.6047 12.8485L19.8026 19.0005C19.8623 19.052 19.9106 19.1151 19.9445 19.1861C19.9785 19.257 19.9972 19.3341 19.9997 19.4125C20.0022 19.491 19.9883 19.5691 19.9589 19.642C19.9296 19.7148 19.8853 19.7809 19.829 19.836C19.7727 19.8911 19.7055 19.9341 19.6317 19.9622C19.5579 19.9903 19.479 20.003 19.4 19.9994C19.321 19.9958 19.2436 19.9761 19.1727 19.9414C19.1017 19.9068 19.0387 19.8579 18.9877 19.798L12.7783 13.6459Z" fill="black"/>
</svg>
