<svg width="19" height="19" viewBox="0 0 19 19" fill="none" xmlns="http://www.w3.org/2000/svg">
<path fill-rule="evenodd" clip-rule="evenodd" d="M6.11111 4.21053C6.11111 3.373 6.4623 2.56978 7.08742 1.97756C7.71254 1.38534 8.56039 1.05263 9.44444 1.05263C10.3285 1.05263 11.1763 1.38534 11.8015 1.97756C12.4266 2.56978 12.7778 3.373 12.7778 4.21053C12.7778 5.04805 12.4266 5.85127 11.8015 6.4435C11.1763 7.03572 10.3285 7.36842 9.44444 7.36842C8.56039 7.36842 7.71254 7.03572 7.08742 6.4435C6.4623 5.85127 6.11111 5.04805 6.11111 4.21053ZM9.44444 0C8.26571 0 7.13524 0.443608 6.30175 1.23323C5.46825 2.02286 5 3.09383 5 4.21053C5 5.32723 5.46825 6.39819 6.30175 7.18782C7.13524 7.97745 8.26571 8.42105 9.44444 8.42105C10.6232 8.42105 11.7536 7.97745 12.5871 7.18782C13.4206 6.39819 13.8889 5.32723 13.8889 4.21053C13.8889 3.09383 13.4206 2.02286 12.5871 1.23323C11.7536 0.443608 10.6232 0 9.44444 0ZM15.6444 12.7895C16.8889 13.6526 17.6778 15.1474 17.7667 17.8947H1.12222C1.21111 15.1579 2 13.6526 3.23333 12.7895C4.62222 11.8421 6.66667 11.5789 9.44444 11.5789C12.2222 11.5789 14.2778 11.8526 15.6444 12.7895ZM9.44444 10.5263C6.66667 10.5263 4.27778 10.7789 2.58889 11.9474C0.855556 13.1368 0 15.1895 0 18.4211V18.9474H18.8889V18.4211C18.8889 15.1895 18.0333 13.1368 16.3 11.9474C14.6111 10.7895 12.2222 10.5263 9.44444 10.5263Z" fill="black"/>
</svg>
