<svg width="24" height="16" viewBox="0 0 24 16" fill="none" xmlns="http://www.w3.org/2000/svg">
<path d="M0 2.5C0 1.11929 1.11929 0 2.5 0H21.5C22.8807 0 24 1.11929 24 2.5V13.5C24 14.8807 22.8807 16 21.5 16H2.5C1.11929 16 0 14.8807 0 13.5V2.5Z" fill="white"/>
<path d="M15.7429 11.247C11.5639 13.2205 8.97035 11.5693 7.31014 10.5665C7.20741 10.5033 7.0328 10.5813 7.18429 10.7539C7.73739 11.4194 9.55002 13.0233 11.916 13.0233C14.2836 13.0233 15.6922 11.7414 15.8684 11.5178C16.0434 11.2961 15.9198 11.1738 15.7429 11.247H15.7429ZM16.9166 10.6039C16.8044 10.4589 16.2342 10.4318 15.8754 10.4756C15.516 10.518 14.9765 10.736 15.0234 10.8668C15.0475 10.9159 15.0966 10.8939 15.3435 10.8719C15.5911 10.8473 16.2846 10.7605 16.4291 10.9479C16.5743 11.1367 16.2079 12.0358 16.141 12.1808C16.0763 12.3258 16.1657 12.3632 16.2871 12.2666C16.4069 12.1701 16.6237 11.9201 16.7692 11.5663C16.9137 11.2105 17.0019 10.7143 16.9166 10.6039H16.9166Z" fill="white"/>
<path fill-rule="evenodd" clip-rule="evenodd" d="M12.9329 7.22019C12.9329 7.73799 12.9461 8.16981 12.6824 8.62965C12.4695 9.00355 12.1322 9.23347 11.7555 9.23347C11.2411 9.23347 10.9416 8.84464 10.9416 8.27076C10.9416 7.13791 11.9645 6.93231 12.9329 6.93231V7.22019ZM14.2837 10.4598C14.1952 10.5383 14.0671 10.5439 13.9672 10.4915C13.5226 10.1252 13.4435 9.95507 13.1986 9.60548C12.4638 10.3495 11.9438 10.5719 10.9906 10.5719C9.86396 10.5719 8.98602 9.88213 8.98602 8.50068C8.98602 7.42209 9.57574 6.68741 10.414 6.32853C11.1413 6.0107 12.1567 5.95463 12.9329 5.8668V5.6948C12.9329 5.37886 12.9574 5.005 12.7709 4.73209C12.607 4.4872 12.2943 4.38625 12.0192 4.38625C11.5086 4.38625 11.0527 4.64608 10.9416 5.18445C10.9189 5.30411 10.8304 5.42189 10.7099 5.42749L9.4099 5.28918C9.30066 5.26483 9.18009 5.177 9.21023 5.0106C9.50978 3.44785 10.9321 2.97675 12.2057 2.97675C12.8575 2.97675 13.7091 3.14874 14.2234 3.63853C14.8753 4.24231 14.8131 5.04799 14.8131 5.92472V7.99596C14.8131 8.61846 15.0731 8.89137 15.318 9.22788C15.4046 9.3475 15.4235 9.49148 15.3142 9.58117C15.041 9.80734 14.5549 10.228 14.2874 10.4635L14.2837 10.4598" fill="black"/>
<path d="M15.7429 11.247C11.5639 13.2205 8.97035 11.5693 7.31014 10.5665C7.20741 10.5033 7.0328 10.5813 7.18429 10.7539C7.73739 11.4194 9.55002 13.0233 11.916 13.0233C14.2836 13.0233 15.6922 11.7414 15.8684 11.5178C16.0434 11.2961 15.9198 11.1738 15.7429 11.247H15.7429ZM16.9166 10.6039C16.8044 10.4589 16.2342 10.4318 15.8754 10.4756C15.516 10.518 14.9765 10.736 15.0234 10.8668C15.0475 10.9159 15.0966 10.8939 15.3435 10.8719C15.5911 10.8473 16.2846 10.7605 16.4291 10.9479C16.5743 11.1367 16.2079 12.0358 16.141 12.1808C16.0763 12.3258 16.1657 12.3632 16.2871 12.2666C16.4069 12.1701 16.6237 11.9201 16.7692 11.5663C16.9137 11.2105 17.0019 10.7143 16.9166 10.6039H16.9166Z" fill="#FF9900"/>
<path fill-rule="evenodd" clip-rule="evenodd" d="M12.9329 7.22019C12.9329 7.73799 12.9461 8.16981 12.6824 8.62965C12.4695 9.00355 12.1322 9.23347 11.7555 9.23347C11.2411 9.23347 10.9416 8.84464 10.9416 8.27076C10.9416 7.13791 11.9645 6.93231 12.9329 6.93231V7.22019ZM14.2837 10.4598C14.1952 10.5383 14.0671 10.5439 13.9672 10.4915C13.5226 10.1252 13.4435 9.95507 13.1986 9.60548C12.4638 10.3495 11.9438 10.5719 10.9906 10.5719C9.86396 10.5719 8.98602 9.88213 8.98602 8.50068C8.98602 7.42209 9.57574 6.68741 10.414 6.32853C11.1413 6.0107 12.1567 5.95463 12.9329 5.8668V5.6948C12.9329 5.37886 12.9574 5.005 12.7709 4.73209C12.607 4.4872 12.2943 4.38625 12.0192 4.38625C11.5086 4.38625 11.0527 4.64608 10.9416 5.18445C10.9189 5.30411 10.8304 5.42189 10.7099 5.42749L9.4099 5.28918C9.30066 5.26483 9.18009 5.177 9.21023 5.0106C9.50978 3.44785 10.9321 2.97675 12.2057 2.97675C12.8575 2.97675 13.7091 3.14874 14.2234 3.63853C14.8753 4.24231 14.8131 5.04799 14.8131 5.92472V7.99596C14.8131 8.61846 15.0731 8.89137 15.318 9.22788C15.4046 9.3475 15.4235 9.49148 15.3142 9.58117C15.041 9.80734 14.5549 10.228 14.2874 10.4635L14.2837 10.4598" fill="black"/>
</svg>
