<svg width="24" height="16" viewBox="0 0 24 16" fill="none" xmlns="http://www.w3.org/2000/svg">
<rect width="24" height="16" rx="2.5" fill="#1F72CD"/>
<path fill-rule="evenodd" clip-rule="evenodd" d="M4.32449 5.62039L2.08696 10.576H4.7656L5.09768 9.78589H5.85672L6.1888 10.576H9.13723V9.97297L9.39995 10.576H10.9251L11.1878 9.96023V10.576H17.3198L18.0654 9.80641L18.7636 10.576L21.913 10.5824L19.6684 8.11204L21.913 5.62039H18.8124L18.0866 6.37578L17.4104 5.62039H10.7397L10.1668 6.89948L9.58059 5.62039H6.90754V6.20293L6.61018 5.62039H4.32449ZM4.84277 6.3241H6.14846L7.63262 9.68454V6.3241H9.06296L10.2093 8.73352L11.2658 6.3241H12.689V9.88009H11.823L11.8159 7.09364L10.5534 9.88009H9.77875L8.50917 7.09364V9.88009H6.72765L6.38991 9.08289H4.56521L4.22817 9.87939H3.27365L4.84277 6.3241ZM17.0025 6.3241H13.4813V9.878H16.948L18.0654 8.70018L19.1424 9.878H20.2682L18.6318 8.11135L20.2682 6.3241H19.1912L18.0795 7.48839L17.0025 6.3241ZM5.47795 6.92576L4.87679 8.34592H6.07842L5.47795 6.92576ZM14.3509 7.70951V7.06037V7.05975H16.548L17.5068 8.0979L16.5056 9.14172H14.3509V8.43304H16.2719V7.70951H14.3509Z" fill="white"/>
</svg>
