<svg width="24" height="16" viewBox="0 0 24 16" fill="none" xmlns="http://www.w3.org/2000/svg">
<path d="M0 2C0 0.895431 0.895431 0 2 0H22C23.1046 0 24 0.895431 24 2V14C24 15.1046 23.1046 16 22 16H2C0.89543 16 0 15.1046 0 14V2Z" fill="white"/>
<path d="M19.5584 8.05217C19.5584 4.47286 16.5709 1.99892 13.2974 2H10.4805C7.16805 1.99881 4.44162 4.47361 4.44162 8.05217C4.44162 11.326 7.16812 14.0158 10.4805 13.9999H13.2974C16.5706 14.0157 19.5584 11.3251 19.5584 8.05217Z" fill="#0079BE"/>
<path d="M10.4982 2.507C7.47138 2.50794 5.0188 4.96632 5.01772 8.0004C5.01847 11.034 7.47117 13.492 10.4982 13.4931C13.5256 13.4922 15.9789 11.034 15.9793 8.0004C15.9789 4.96625 13.5257 2.50808 10.4982 2.507Z" fill="white"/>
<path d="M7.03424 7.98556C7.03712 6.50294 7.96122 5.23864 9.26429 4.73625V11.2341C7.96122 10.732 7.03708 9.46839 7.03424 7.98559V7.98556ZM11.7507 11.2358V4.73643C13.0543 5.23763 13.9798 6.50265 13.9822 7.98595C13.9798 9.46973 13.0543 10.7338 11.7507 11.2359V11.2358Z" fill="#0079BE"/>
</svg>
