<svg width="24" height="16" viewBox="0 0 24 16" fill="none" xmlns="http://www.w3.org/2000/svg">
<path d="M0 2C0 0.895431 0.895431 0 2 0H22C23.1046 0 24 0.895431 24 2V14C24 15.1046 23.1046 16 22 16H2C0.89543 16 0 15.1046 0 14V2Z" fill="white"/>
<path d="M20 11.6745C20 13.0488 18.8861 14.1632 17.5114 14.1632H4V4.32586C4 2.95118 5.11392 1.83676 6.48887 1.83676H19.9999L19.9999 11.6745L20 11.6745Z" fill="white"/>
<path d="M15.5952 8.21586C15.9811 8.22425 16.3692 8.19882 16.7536 8.22907C17.1429 8.30169 17.2367 8.89098 16.8908 9.08398C16.6549 9.21112 16.3746 9.13133 16.1188 9.15376H15.5952V8.21586V8.21586ZM16.9767 7.15428C17.0625 7.45692 16.7707 7.72864 16.4793 7.68697H15.5952C15.6014 7.40157 15.5831 7.0918 15.6042 6.82143C15.9583 6.8314 16.3158 6.80108 16.6679 6.83728C16.8191 6.87529 16.9458 6.99966 16.9767 7.15428V7.15428ZM19.1043 2.66624C19.1208 3.2442 19.1067 3.85271 19.1114 4.4424C19.1104 6.83985 19.1138 9.23724 19.1096 11.6348C19.094 12.5333 18.2978 13.3141 17.4055 13.332C16.5123 13.3356 15.619 13.3326 14.7258 13.3336V9.7091C15.699 9.70408 16.6728 9.7193 17.6456 9.7015C18.097 9.67317 18.5913 9.37538 18.6123 8.87873C18.6654 8.37992 18.1952 8.03492 17.7487 7.98042C17.5771 7.97597 17.5821 7.93039 17.7487 7.91051C18.1745 7.81847 18.5089 7.37773 18.3836 6.93632C18.2769 6.47206 17.7637 6.29237 17.3369 6.29326C16.4667 6.28735 15.5962 6.29244 14.726 6.29072C14.7316 5.61408 14.7142 4.93671 14.7353 4.26056C14.8043 3.37828 15.6206 2.65068 16.5003 2.66647C17.3684 2.66633 18.2364 2.66633 19.1043 2.6663V2.66624Z" fill="url(#paint0_linear_185:513)"/>
<path d="M4.89121 4.35194C4.91343 3.45486 5.71312 2.68053 6.60426 2.66742C7.49411 2.66468 8.38409 2.66702 9.27394 2.66623C9.27149 5.66767 9.27876 8.66945 9.27027 11.6707C9.23599 12.5569 8.44502 13.3165 7.56359 13.3322C6.67206 13.3354 5.78043 13.3326 4.88886 13.3335V9.58687C5.75487 9.79146 6.66301 9.87854 7.54648 9.74285C8.07458 9.65787 8.65238 9.39853 8.83117 8.85065C8.96275 8.382 8.88867 7.88878 8.90825 7.40778V6.29072H7.37931C7.37244 7.02951 7.39338 7.76959 7.36825 8.5075C7.32704 8.96106 6.87787 9.24923 6.4501 9.23384C5.91959 9.23945 4.86832 8.84937 4.86832 8.84937C4.86568 7.46517 4.88371 5.73168 4.89121 4.35207V4.35194Z" fill="url(#paint1_linear_185:513)"/>
<path d="M9.84415 6.7413C9.76367 6.75837 9.82796 6.46716 9.80739 6.35669C9.81287 5.65822 9.79593 4.95899 9.81674 4.26102C9.88549 3.375 10.7081 2.64559 11.5914 2.66633H14.1927C14.1902 5.66777 14.1975 8.66954 14.189 11.6708C14.1547 12.557 13.3637 13.3165 12.4822 13.3323C11.5906 13.3356 10.699 13.3328 9.80736 13.3336V9.22868C10.4163 9.72831 11.2439 9.80608 12.0026 9.80744C12.5745 9.80724 13.1431 9.71906 13.6985 9.58716V8.83513C13.0725 9.14708 12.3368 9.34522 11.6429 9.166C11.1589 9.04553 10.8076 8.57777 10.8154 8.07827C10.7593 7.55882 11.0638 7.01042 11.5743 6.85599C12.208 6.65758 12.8988 6.80933 13.4928 7.06729C13.6201 7.13393 13.7493 7.21659 13.6984 7.00384V6.41274C12.7049 6.17635 11.6475 6.08936 10.6493 6.34652C10.3604 6.42803 10.0789 6.55164 9.84415 6.74137V6.7413Z" fill="url(#paint2_linear_185:513)"/>
<defs>
<linearGradient id="paint0_linear_185:513" x1="14.6958" y1="7.77182" x2="19.0838" y2="7.77182" gradientUnits="userSpaceOnUse">
<stop stop-color="#007B40"/>
<stop offset="1" stop-color="#55B330"/>
</linearGradient>
<linearGradient id="paint1_linear_185:513" x1="4.79556" y1="8.10203" x2="9.20204" y2="8.10203" gradientUnits="userSpaceOnUse">
<stop stop-color="#1D2970"/>
<stop offset="1" stop-color="#006DBA"/>
</linearGradient>
<linearGradient id="paint2_linear_185:513" x1="9.80092" y1="7.87524" x2="14.1918" y2="7.87524" gradientUnits="userSpaceOnUse">
<stop stop-color="#6E2B2F"/>
<stop offset="1" stop-color="#E30138"/>
</linearGradient>
</defs>
</svg>
