<svg width="24" height="16" viewBox="0 0 24 16" fill="none" xmlns="http://www.w3.org/2000/svg">
<path d="M0 2C0 0.895431 0.895431 0 2 0H22C23.1046 0 24 0.895431 24 2V14C24 15.1046 23.1046 16 22 16H2C0.89543 16 0 15.1046 0 14V2Z" fill="white"/>
<path d="M16.1278 5.01605C16.1278 5.08022 16.1278 5.1444 16.0636 5.20857C15.5503 7.77541 13.8818 8.60963 11.7 8.60963H10.6091C10.3524 8.60963 10.0957 8.80215 10.0957 9.05884L9.51818 12.6524L9.38984 13.6792C9.38984 13.8717 9.51817 14 9.64652 14H11.6358C11.8925 14 12.085 13.8075 12.085 13.615V13.4866L12.4701 11.1765V11.0481C12.5342 10.7915 12.7267 10.6631 12.9192 10.6631H13.2401C15.1652 10.6631 16.6412 9.89306 17.0262 7.64707C17.2187 6.6845 17.0904 5.91445 16.6412 5.40108C16.5128 5.27274 16.3203 5.14439 16.1278 5.01605Z" fill="#2199D6"/>
<path d="M15.6144 4.82354C15.5502 4.82354 15.4861 4.75937 15.3577 4.75937C15.2936 4.75937 15.1652 4.6952 15.101 4.6952C14.7802 4.63103 14.4593 4.63103 14.1385 4.63103H11.1866C11.1224 4.63103 11.0583 4.63103 10.9941 4.6952C10.8658 4.75937 10.7374 4.88771 10.7374 5.01605L10.0957 8.99467V9.12301C10.1599 8.86632 10.3524 8.67381 10.6091 8.67381H11.7C13.8818 8.67381 15.5502 7.77541 16.0636 5.27274C16.0636 5.20857 16.0636 5.1444 16.1278 5.08023C15.9994 5.01605 15.8711 4.95188 15.7428 4.88771C15.6786 4.82354 15.6144 4.82354 15.6144 4.82354Z" fill="#252C5E"/>
<path d="M10.7374 5.01604C10.7374 4.8877 10.8658 4.75936 10.9941 4.69519C11.0583 4.69519 11.1224 4.63102 11.1866 4.63102H14.1385C14.4593 4.63102 14.8444 4.63101 15.101 4.69519C15.1652 4.69519 15.2936 4.69519 15.3577 4.75936C15.4219 4.75936 15.4861 4.82353 15.6144 4.82353C15.6786 4.82353 15.6786 4.82353 15.7428 4.8877C15.8711 4.95187 15.9994 5.01604 16.1278 5.08021C16.2561 4.11765 16.1278 3.47593 15.6144 2.89839C15.0369 2.25668 14.0101 2 12.7267 2H8.94062C8.68394 2 8.42725 2.19251 8.42725 2.4492L6.88715 12.3316C6.88715 12.5241 7.01549 12.7166 7.208 12.7166H9.51816L10.0957 8.99465L10.7374 5.01604Z" fill="#263577"/>
</svg>
