<svg width="24" height="16" viewBox="0 0 24 16" fill="none" xmlns="http://www.w3.org/2000/svg">
<path d="M0 2C0 0.895431 0.895431 0 2 0H22C23.1046 0 24 0.895431 24 2V14C24 15.1046 23.1046 16 22 16H2C0.89543 16 0 15.1046 0 14V2Z" fill="#3D95CE"/>
<path d="M15.5501 4C15.8606 4.48001 16 4.97496 16 5.6C16 7.59343 14.1851 10.1823 12.7122 12H9.34877L8 4.43674L10.9461 4.17448L11.6626 9.5559C12.3285 8.53778 13.1517 6.93773 13.1517 5.84763C13.1517 5.25034 13.0427 4.84435 12.872 4.5099L15.5501 4Z" fill="white"/>
</svg>
